# xmcd
#
# Track frame offsets:
#	150
#	17363
#	29938
#	48689
#	66874
#	87146
#	103816
#	121257
#	142661
#	164306
#	181207
#	198064
#
# Disc length: 2891 seconds
#
# Revision: 0
# Processed by: cddbd v1.5.2PL0 Copyright (c) Steve Scherf et al.
# Submitted via: audiograbber 1.83.01
#
DISCID=9a0b490c
DTITLE=Iris - 12 Porti
DYEAR=2010
DGENRE=
TTITLE0=Nimeni nu mai plange
TTITLE1=Daruind vei dobandi
TTITLE2=Tacerea ta
TTITLE3=Lumina vie
TTITLE4=Cat as vrea sa zbor
TTITLE5=Nu te mai preface
TTITLE6=Prizonieri in noi
TTITLE7=Lacrimi de stele
TTITLE8=Fara tine
TTITLE9=E un vis
TTITLE10=Vremea binelui
TTITLE11=Mereu impreuna
EXTD=
EXTT0=
EXTT1=
EXTT2=
EXTT3=
EXTT4=
EXTT5=
EXTT6=
EXTT7=
EXTT8=
EXTT9=
EXTT10=
EXTT11=
PLAYORDER=
